<svg width="529" height="352" viewBox="0 0 529 352" fill="none" xmlns="http://www.w3.org/2000/svg">
<rect x="250" y="77.358" width="29" height="257.284" fill="#FF0000" stroke="black"/>
<rect x="250" y="61" width="29" height="16.2189" fill="#FF0000" stroke="black"/>
<rect x="250" y="334.781" width="29" height="16.2189" fill="#FF0000" stroke="black"/>
<path d="M250 351L250 61H172C141.5 61 141.5 62.7109 141.5 69.7684C141.5 76.826 141.5 78.5369 122 78.5369H1.00006V341V342.445C1.00006 347.17 5.47722 351 11.0001 351L250 351Z" fill="#FF0000"/>
<path d="M250 351L250 61H172C141.5 61 141.5 62.7109 141.5 69.7684C141.5 76.826 141.5 78.5369 122 78.5369C102.5 78.5369 1.00006 78.5369 1.00006 78.5369M250 351L11.0001 351C5.47721 351 1.00006 346.523 1.00006 341V78.5369M250 351L11.0001 351C5.47722 351 1.00006 347.17 1.00006 342.445V78.5369" stroke="black"/>
<path d="M279 351L279 61H357C387.5 61 387.5 62.7109 387.5 69.7684C387.5 76.826 387.5 78.5369 407 78.5369H528V341V342.445C528 347.17 523.523 351 518 351L279 351Z" fill="#FF0000"/>
<path d="M279 351L279 61H357C387.5 61 387.5 62.7109 387.5 69.7684C387.5 76.826 387.5 78.5369 407 78.5369C426.5 78.5369 528 78.5369 528 78.5369M279 351L518 351C523.523 351 528 346.523 528 341V78.5369M279 351L518 351C523.523 351 528 347.17 528 342.445V78.5369" stroke="black"/>
<path d="M122 81.5H1V11C1 5.47715 5.47715 1 11 1H240C245.523 1 250 5.47715 250 11V61H172C141.5 61 141.5 63 141.5 71.25C141.5 79.5 141.5 81.5 122 81.5Z" fill="#FF0000" stroke="black"/>
<circle cx="82" cy="13" r="4.5" fill="#FF0000" stroke="black"/>
<circle cx="103" cy="13" r="4.5" fill="#FFFF00" stroke="black"/>
<circle cx="124" cy="13" r="4.5" fill="#00FF00" stroke="black"/>
<circle cx="42.5" cy="40.5" r="22.5" fill="#61B6F3"/>
<circle cx="42.5" cy="40.5" r="23" stroke="black"/>
<circle cx="42.5" cy="40.5" r="24.5" stroke="#999999" stroke-width="2"/>
<path d="M33 106.5H220C222.485 106.5 224.5 108.515 224.5 111V252C224.5 254.485 222.485 256.5 220 256.5H58C41.7076 256.5 28.5 243.292 28.5 227V111C28.5 108.515 30.5147 106.5 33 106.5Z" fill="#C4C4C4" stroke="black"/>
<rect x="56" y="130" width="140" height="98" rx="5" fill="black"/>
<line x1="176" y1="234.5" x2="196" y2="234.5" stroke="black"/>
<line x1="176" y1="239.5" x2="196" y2="239.5" stroke="black"/>
<line x1="176" y1="244.5" x2="196" y2="244.5" stroke="black"/>
<line x1="176" y1="249.5" x2="196" y2="249.5" stroke="black"/>
<circle cx="61" cy="242" r="4.5" fill="#FF0000" stroke="black"/>
<circle cx="114.5" cy="118.5" r="3" fill="#FF0000" stroke="black"/>
<circle cx="137.5" cy="118.5" r="3" fill="#FF0000" stroke="black"/>
<rect x="56.5" y="265.5" width="29" height="4" rx="2" fill="#FF0000" stroke="black"/>
<rect x="107.5" y="265.5" width="29" height="4" rx="2" fill="#0000FF" stroke="black"/>
<rect x="476.5" y="247.5" width="29" height="4" rx="2" fill="#222222" stroke="black"/>
<rect x="438.5" y="247.5" width="29" height="4" rx="2" fill="#222222" stroke="black"/>
<circle cx="23" cy="277" r="11.5" fill="#222222" stroke="black"/>
<rect x="61.5" y="286.5" width="67" height="35" rx="4.5" fill="#619748" stroke="black"/>
<path d="M216.676 303.5C216.676 310.916 210.977 316.882 204 316.882C197.023 316.882 191.324 310.916 191.324 303.5C191.324 296.084 197.023 290.118 204 290.118C210.977 290.118 216.676 296.084 216.676 303.5Z" fill="#222222" stroke="#222222"/>
<path d="M197.647 291.353C198.529 286.017 199.104 282.449 196.525 275.377C196.283 274.714 196.766 274 197.472 274H211.002C211.707 274 212.19 274.712 211.947 275.374C209.787 281.248 209.524 285.014 210.824 291.353H197.647Z" fill="#222222" stroke="#222222"/>
<path d="M192.471 310.441C187.432 309.517 184.055 308.913 177.413 311.581C176.743 311.85 176 311.366 176 310.644V296.352C176 295.631 176.742 295.148 177.41 295.419C182.925 297.654 186.492 297.919 192.471 296.559V310.441Z" fill="#222222" stroke="#222222"/>
<path d="M210.588 315.647C209.706 320.983 209.132 324.551 211.711 331.623C211.953 332.286 211.469 333 210.763 333H197.233C196.528 333 196.045 332.288 196.288 331.626C198.448 325.752 198.711 321.986 197.412 315.647H210.588Z" fill="#222222" stroke="#222222"/>
<path d="M215.529 296.559C220.568 297.483 223.945 298.087 230.587 295.419C231.257 295.15 232 295.634 232 296.356V310.648C232 311.369 231.258 311.852 230.59 311.581C225.075 309.346 221.508 309.081 215.529 310.441V296.559Z" fill="#222222" stroke="#222222"/>
<circle cx="204" cy="303" r="2.5" fill="#222222" stroke="black"/>
<rect x="312.5" y="110.5" width="183" height="72" rx="9.5" fill="#222222" stroke="black"/>
<rect x="301.5" y="110.5" width="204" height="72" rx="4.5" fill="#222222" stroke="black"/>
<rect x="301.5" y="306.5" width="94" height="26" rx="4.5" fill="#222222" stroke="black"/>
<path d="M306 265.5H339.5V291.5H306C303.515 291.5 301.5 289.485 301.5 287V270C301.5 267.515 303.515 265.5 306 265.5Z" fill="#BBBBBB" stroke="black"/>
<path d="M339.5 265.5H373C375.485 265.5 377.5 267.515 377.5 270V287C377.5 289.485 375.485 291.5 373 291.5H339.5V265.5Z" fill="#BBBBBB" stroke="black"/>
<rect x="411.5" y="306.5" width="94" height="26" rx="4.5" fill="#222222" stroke="black"/>
<rect x="301.5" y="191.5" width="204" height="49" rx="4.5" fill="#6E96E2" stroke="black"/>
<line x1="301" y1="215.5" x2="505" y2="215.5" stroke="black"/>
<line x1="340.5" y1="192" x2="340.5" y2="241" stroke="black"/>
<line x1="381.5" y1="192" x2="381.5" y2="241" stroke="black"/>
<line x1="423.5" y1="191" x2="423.5" y2="240" stroke="black"/>
<line x1="464.5" y1="192" x2="464.5" y2="241" stroke="black"/>
<circle cx="495" cy="279" r="9.5" fill="#FFFF00" stroke="black"/>
</svg>
